<svg id="svg7" class="icon icon-tabler icons-tabler-outline icon-tabler-calendar-time" width="48" height="48" fill="none" stroke="currentColor" stroke-linecap="round" stroke-linejoin="round" version="1.1" viewBox="0 0 48 48" xmlns="http://www.w3.org/2000/svg"><path id="path1" d="m0 0h48v48h-48z" fill="none" stroke="none" stroke-width="2"/><path id="path2" d="m22.484 42.275h-14.609a4.3 4.3 0 0 1-4.3-4.3v-25.8a4.3 4.3 0 0 1 4.3-4.3h25.8a4.3 4.3 0 0 1 4.3 4.3v8.6" stroke-width="2.15"/><path id="path3" d="m35.825 35.825m-8.6 0a8.6 8.6 0 1 0 17.2 0 8.6 8.6 0 1 0-17.2 0" stroke-width="2.15"/><path id="path4" d="m29.375 3.575v8.6" stroke-width="2.15"/><path id="path5" d="m12.175 3.575v8.6" stroke-width="2.15"/><path id="path6" d="m3.575 20.775h34.4" stroke-width="2.15"/><path id="path7" d="m35.825 32.591v3.2336l2.15 2.15" stroke-width="2.15"/></svg>
