<svg id="svg5" class="icon icon-tabler icons-tabler-outline icon-tabler-tax-euro" width="48" height="48" fill="none" stroke="currentColor" stroke-linecap="round" stroke-linejoin="round" version="1.1" viewBox="0 0 48 48" xmlns="http://www.w3.org/2000/svg"><path id="path1" d="m0 0h48v48h-48z" fill="none" stroke="none" stroke-width="2"/><path id="path2" d="m16.05 44.368h15.901a9.0526 9.0526 0 0 0 8.6181-11.823l-3.8609-12.008a11.316 11.316 0 0 0-10.773-7.8532h-3.87a11.316 11.316 0 0 0-10.773 7.8532l-3.8609 12.008a9.0526 9.0526 0 0 0 8.6181 11.823" stroke-width="2.2632"/><path id="path3" d="m30.789 3.6316q-2.2632 9.0526-6.7895 9.0526t-6.7895-9.0526z" stroke-width="2.2632"/><path id="path4" d="m24 28.526h-6.7895" stroke-width="2.2632"/><path id="path5" d="m28.526 22.126a6.7895 6.7895 0 1 0 0 12.8" stroke-width="2.2632"/></svg>
